# xmcd CD database file
#
# Track frame offsets:
#	150
#	17500
#	45607
#	68060
#	89186
#	104493
#	121847
#	149966
#	172380
#	193477
#
# Disc length: 2781 seconds
#
# Revision: 0
# Processed by: cddbd v1.5.2PL0 Copyright (c) Steve Scherf et al.
# Submitted via: CDex 2.05
#
DISCID=a00adb0a
DTITLE=Guts - Stop The Violence
DYEAR=2017
DGENRE=Jazz
TTITLE0=Stop The Violence
TTITLE1=Pick Me Up
TTITLE2=Everybody Wants To Be A Star
TTITLE3=Ain't Perfect
TTITLE4=Drummer's Delight
TTITLE5=Stop The Violence
TTITLE6=Pick Me Up
TTITLE7=Everybody Wants To Be A Star
TTITLE8=Ain't Perfect
TTITLE9=Drummer's Delight
EXTD=YEAR: 2017
EXTT0=
EXTT1=
EXTT2=
EXTT3=
EXTT4=
EXTT5=
EXTT6=
EXTT7=
EXTT8=
EXTT9=
PLAYORDER=
